<?xml version="1.0" standalone="no"?>
<!DOCTYPE svg PUBLIC "-//W3C//DTD SVG 20010904//EN"
 "http://www.w3.org/TR/2001/REC-SVG-20010904/DTD/svg10.dtd">
<svg version="1.0" xmlns="http://www.w3.org/2000/svg"
 width="1280.000000pt" height="1280.000000pt" viewBox="0 0 1280.000000 1280.000000"
 preserveAspectRatio="xMidYMid meet">
<metadata>
Created by potrace 1.14, written by Peter Selinger 2001-2017
</metadata>
<g transform="translate(0.000000,1280.000000) scale(0.100000,-0.100000)"
fill="#000000" stroke="none">
<path d="M7181 11608 c-23 -24 -58 -67 -77 -95 -19 -29 -36 -53 -38 -53 -1 0
0 27 2 61 4 55 3 61 -14 57 -22 -4 -32 -24 -77 -143 -19 -49 -38 -99 -42 -110
-6 -15 -10 -6 -16 39 -14 99 -34 100 -70 5 -22 -57 -37 -135 -46 -232 -5 -63
-23 -69 -23 -7 0 52 -15 58 -33 12 l-16 -37 0 51 c-1 32 -6 56 -15 64 -13 10
-18 2 -31 -47 -9 -32 -29 -101 -45 -153 -16 -52 -35 -131 -43 -175 l-14 -80
-2 110 c-2 181 -38 181 -56 0 -9 -93 -12 -100 -32 -103 -21 -3 -23 1 -24 50
-1 61 -10 98 -24 101 -17 3 -37 -163 -38 -325 -2 -160 -9 -172 -28 -44 -9 70
-22 97 -36 82 -5 -4 -8 -68 -8 -142 1 -121 -1 -132 -13 -108 -8 14 -17 22 -22
18 -8 -10 4 -201 16 -249 7 -28 7 -29 -10 -12 -32 32 -39 21 -31 -57 l6 -73
-26 -7 c-15 -4 -30 -4 -33 -1 -4 3 -10 65 -14 138 -10 171 -28 272 -48 272
-20 0 -48 -86 -49 -150 -1 -27 -6 -57 -12 -65 -12 -17 -5 111 12 220 6 36 11
119 12 186 1 100 -2 126 -16 148 -10 14 -22 26 -27 26 -13 0 -24 -82 -29 -219
-1 -13 -4 -21 -8 -17 -4 4 -11 132 -14 284 -4 152 -10 287 -14 300 -13 40 -33
25 -39 -30 -19 -155 -30 -169 -41 -50 -9 103 -23 159 -52 205 -37 59 -57 48
-63 -38 -4 -60 -7 -67 -17 -50 -11 17 -12 11 -13 -45 0 -79 -15 -112 -25 -54
-3 21 -10 55 -15 74 -5 19 -12 62 -16 95 -3 33 -10 65 -14 70 -4 6 -11 21 -15
35 -9 31 -73 120 -86 120 -14 0 -11 -59 6 -114 17 -56 19 -69 6 -62 -4 3 -18
34 -31 68 -24 65 -96 188 -110 188 -4 0 -11 -7 -14 -16 -10 -25 -7 -112 4
-119 12 -7 14 -55 3 -55 -5 0 -26 26 -48 57 -51 72 -124 153 -150 164 -11 5
-42 23 -70 39 -80 47 -104 35 -41 -21 34 -29 99 -120 113 -156 7 -17 6 -17
-17 -1 -152 108 -268 148 -402 139 -31 -2 -19 -20 30 -45 26 -13 85 -50 132
-82 47 -32 107 -73 135 -91 55 -37 47 -40 -38 -18 -64 16 -173 20 -181 6 -9
-14 12 -25 124 -61 95 -32 101 -35 68 -38 -45 -4 -50 -23 -10 -43 26 -13 24
-14 -45 -17 -47 -2 -75 -8 -83 -17 -11 -13 -6 -15 27 -15 21 0 43 -4 49 -8 5
-5 50 -20 99 -33 55 -15 80 -25 65 -27 -34 -3 -103 -24 -114 -33 -11 -9 35
-29 67 -29 12 0 29 -4 37 -10 12 -7 11 -12 -5 -31 l-20 -22 28 5 c16 3 50 -3
76 -12 26 -10 83 -23 126 -29 101 -14 113 -26 27 -27 -57 -1 -161 -20 -124
-23 31 -3 7 -19 -37 -25 -55 -7 -83 -29 -54 -41 10 -4 45 -14 78 -21 33 -8 73
-18 89 -22 l28 -7 -26 -14 c-15 -8 -25 -19 -23 -25 2 -6 42 -16 88 -23 46 -6
98 -16 114 -22 26 -8 21 -9 -38 -10 -65 -1 -107 -12 -107 -30 0 -4 23 -18 52
-31 29 -13 47 -25 40 -28 -20 -6 -13 -28 13 -40 13 -6 47 -14 74 -18 55 -7 60
-24 8 -24 -50 0 -107 -12 -107 -22 0 -8 80 -63 104 -71 7 -3 7 -9 -3 -21 -8
-10 -10 -20 -5 -25 9 -8 116 -45 159 -54 17 -4 -16 -7 -144 -11 -12 -1 -67 45
-138 114 -157 151 -160 154 -305 263 -131 98 -371 250 -454 287 -27 12 -74 34
-104 49 -30 15 -82 36 -115 46 -33 10 -64 21 -70 25 -34 24 -249 70 -263 56
-9 -9 12 -22 106 -63 40 -17 86 -39 104 -47 17 -9 34 -16 39 -16 6 0 138 -60
244 -112 l40 -19 -40 7 c-22 4 -47 10 -55 14 -8 4 -51 11 -95 15 -94 8 -89 0
35 -54 98 -43 157 -71 148 -71 -4 0 -41 9 -82 20 -51 14 -97 20 -143 18 l-68
-3 45 -24 c25 -13 39 -26 33 -28 -27 -9 -11 -30 40 -53 62 -28 244 -99 272
-107 11 -3 25 -9 30 -13 6 -4 40 -17 78 -30 37 -13 67 -27 67 -32 0 -11 2 -11
-66 13 -32 11 -81 25 -109 31 -27 6 -59 14 -70 19 -17 7 -157 23 -204 24 -8 0
-16 -5 -18 -12 -3 -7 16 -18 46 -27 28 -8 117 -50 198 -92 80 -42 164 -83 187
-90 35 -11 16 -12 -143 -7 -156 5 -183 4 -179 -8 2 -8 15 -16 29 -17 13 -2 28
-8 33 -13 6 -5 18 -9 28 -9 22 0 145 -37 170 -51 10 -5 23 -9 30 -9 7 0 26 -7
41 -15 35 -18 148 -41 245 -51 40 -3 75 -11 78 -15 3 -5 15 -9 26 -9 12 0 18
-3 15 -7 -4 -3 -65 0 -137 7 -115 12 -144 11 -257 -4 -217 -29 -287 -43 -357
-75 -90 -41 -81 -56 28 -48 l81 6 -40 -19 c-22 -10 -67 -27 -100 -38 -113 -38
-290 -124 -500 -242 -60 -34 -60 -34 -197 -35 -93 0 -141 -4 -149 -12 -12 -12
-11 -13 56 -39 33 -13 -41 -17 -77 -5 -17 6 -91 11 -164 11 -105 0 -134 -3
-134 -13 0 -18 41 -36 96 -44 53 -7 49 -19 -9 -28 -23 -3 -60 -10 -82 -15 -22
-5 -88 -19 -148 -31 -144 -29 -143 -49 6 -66 31 -3 47 -10 47 -19 0 -8 -8 -14
-18 -14 -29 0 -177 -65 -216 -95 -42 -32 -61 -61 -47 -70 9 -5 29 1 86 26 11
5 53 13 93 19 40 6 97 18 127 28 30 11 55 17 55 15 0 -3 -26 -28 -57 -56 -111
-101 -186 -177 -180 -183 7 -8 132 40 168 64 15 9 53 35 85 57 33 22 65 44 73
49 19 12 -34 -63 -113 -159 -36 -44 -66 -88 -66 -99 0 -16 2 -17 19 -5 101 75
182 130 234 157 34 19 84 53 112 76 52 44 95 72 95 60 0 -4 -59 -63 -131 -132
-108 -104 -169 -178 -169 -207 0 -14 32 -1 98 40 40 25 76 45 80 45 17 0 161
106 214 158 32 31 60 53 64 49 3 -3 -14 -32 -39 -64 -54 -70 -87 -133 -87
-168 0 -45 24 -33 135 65 135 118 193 171 255 230 89 88 108 94 62 21 -20 -32
-49 -78 -65 -102 -15 -24 -41 -63 -57 -85 -36 -51 -43 -87 -16 -92 13 -3 42
19 92 69 41 41 74 69 74 64 0 -6 -33 -49 -74 -96 -65 -75 -80 -87 -123 -98
-52 -14 -120 -36 -168 -56 -16 -7 -50 -20 -75 -30 -25 -10 -52 -25 -60 -33
-13 -12 -6 -13 50 -7 36 3 77 8 93 11 16 3 27 1 27 -5 0 -6 -7 -11 -15 -11
-31 0 -112 -34 -155 -64 -25 -18 -65 -38 -90 -46 -57 -17 -119 -51 -146 -82
-29 -32 -78 -74 -103 -87 -11 -7 -21 -16 -21 -21 0 -17 31 -11 96 20 63 29
114 46 114 37 0 -2 -31 -28 -69 -57 -81 -61 -188 -175 -243 -258 -64 -97 -43
-111 48 -33 32 28 60 48 62 46 3 -3 -27 -55 -38 -65 -22 -20 -72 -115 -77
-147 -3 -21 -10 -43 -15 -49 -9 -12 9 -65 21 -63 10 1 198 210 233 259 38 52
49 70 77 125 62 119 110 195 124 195 11 0 -21 -98 -45 -135 -65 -103 -117
-220 -118 -262 0 -30 32 -9 76 50 26 34 61 77 76 96 16 18 44 63 61 100 38 79
36 75 42 70 2 -3 -5 -30 -16 -60 -56 -146 -133 -398 -125 -406 3 -4 20 6 36
22 26 25 63 105 85 185 12 41 149 306 197 380 9 14 26 43 37 65 12 22 21 33
21 25 0 -8 -7 -28 -16 -45 -9 -16 -25 -52 -35 -80 -11 -27 -35 -79 -53 -115
-37 -72 -109 -280 -121 -348 -6 -39 -5 -43 11 -40 25 4 57 55 90 141 26 66 73
151 80 144 2 -1 -8 -45 -20 -97 -36 -146 -39 -170 -23 -170 32 0 78 82 223
398 23 52 45 96 47 99 7 6 -12 -78 -22 -97 -4 -8 -18 -60 -30 -115 -12 -55
-35 -141 -51 -192 -30 -92 -37 -133 -22 -133 19 0 73 70 108 140 42 85 53 81
29 -10 -12 -47 -13 -66 -5 -74 8 -8 15 -6 26 9 30 39 93 181 119 265 14 47 30
94 35 105 4 11 18 46 30 78 43 109 35 53 -19 -143 -22 -78 -28 -185 -12 -195
12 -7 33 38 58 125 l20 65 -1 -80 c-1 -113 17 -108 69 20 23 55 65 148 93 207
29 59 52 112 52 118 0 6 5 8 10 5 8 -5 8 -11 0 -19 -5 -7 -18 -68 -29 -134
-17 -116 -20 -123 -57 -165 -88 -97 -207 -289 -236 -381 -20 -62 -20 -71 -6
-79 14 -9 11 -20 -23 -91 -38 -78 -49 -132 -30 -151 5 -6 -1 -46 -16 -100 -14
-49 -31 -128 -39 -175 -7 -47 -15 -92 -17 -101 -9 -36 10 -40 31 -7 l22 33 0
-75 c0 -87 24 -263 41 -305 10 -28 12 -28 19 -10 4 11 15 56 23 100 39 205 61
295 71 285 6 -6 13 -63 15 -126 2 -80 7 -114 15 -111 22 7 34 74 44 247 11
168 27 270 44 270 4 0 8 -6 8 -12 0 -7 8 -71 16 -143 9 -71 18 -149 21 -173 6
-47 26 -53 31 -9 2 20 10 27 30 29 24 3 28 9 35 53 4 28 5 95 3 150 -3 55 -4
96 -2 90 2 -5 12 -38 21 -73 10 -34 23 -61 29 -59 6 2 13 42 16 93 l5 89 18
-60 c23 -79 32 -94 49 -77 9 10 13 50 12 145 0 73 1 121 3 107 7 -54 25 -101
36 -97 7 2 18 21 25 42 11 33 10 55 -3 135 -8 52 -19 120 -24 150 -13 80 -20
221 -11 215 4 -2 15 -66 24 -142 25 -207 68 -373 96 -373 16 0 33 102 27 164
-3 33 -3 90 1 126 l8 65 7 -56 c9 -75 30 -125 44 -107 6 7 13 30 17 51 6 34
26 53 26 25 0 -8 3 -9 10 -2 5 5 13 87 16 182 4 95 10 172 13 172 7 0 60 -174
63 -209 4 -32 26 -38 36 -10 6 15 11 18 16 11 13 -22 23 -13 36 32 7 26 10 68
6 102 -3 33 -8 127 -10 209 -6 180 6 151 34 -85 10 -85 18 -157 19 -159 3 -11
31 24 31 40 0 21 22 38 28 21 8 -25 30 -10 46 31 10 23 24 56 31 73 8 18 17
48 20 68 9 46 25 47 25 2 0 -38 8 -66 19 -66 4 0 18 32 30 70 13 39 26 70 30
70 4 0 12 -14 18 -30 13 -36 8 -43 -163 -216 -200 -203 -289 -339 -369 -564
-27 -74 -38 -187 -17 -183 6 2 12 -1 12 -5 0 -24 -34 -115 -65 -177 -21 -43
-35 -85 -35 -107 0 -43 9 -47 35 -18 21 24 31 20 16 -7 -10 -17 -19 -47 -61
-213 -24 -91 -29 -355 -7 -348 6 3 15 22 18 44 4 29 7 35 13 22 5 -10 5 -39 1
-65 -13 -91 -13 -198 0 -261 7 -35 15 -66 19 -69 11 -11 26 49 26 105 1 97 18
36 21 -72 2 -54 9 -126 16 -159 7 -34 13 -79 13 -100 0 -53 14 -39 29 30 19
82 32 125 38 119 3 -2 10 -28 17 -58 l13 -53 16 55 c10 30 20 79 24 108 6 53
23 82 23 40 0 -34 27 -115 33 -98 2 8 10 32 16 53 17 53 24 201 13 277 -5 36
-8 67 -6 69 2 2 16 -22 30 -54 25 -54 28 -57 36 -35 12 32 1 101 -28 179 -14
35 -21 67 -18 70 4 3 9 1 11 -5 2 -6 23 -38 48 -70 24 -33 47 -72 50 -87 4
-15 11 -27 16 -27 19 0 8 81 -22 151 -43 105 -70 182 -66 192 1 5 16 -10 32
-34 16 -24 58 -79 94 -123 l66 -78 3 40 c3 41 0 51 -73 225 -40 96 -43 140 -5
63 14 -26 37 -57 52 -68 26 -18 28 -18 28 -1 0 10 -12 63 -26 118 -48 188 -53
210 -53 225 -1 15 49 -80 84 -160 23 -54 53 -100 66 -100 15 0 10 72 -10 130
-11 30 -32 87 -49 125 -16 39 -33 81 -37 95 -7 22 -6 23 7 12 9 -7 22 -27 28
-45 17 -41 32 -78 64 -150 14 -32 26 -61 26 -64 0 -17 54 -83 67 -83 24 0 9
73 -59 283 -33 103 -58 191 -54 194 3 4 6 1 6 -6 0 -20 114 -181 128 -181 32
0 14 56 -94 307 -8 17 -14 36 -14 43 0 6 -16 42 -36 80 -40 78 -43 117 -3 43
99 -182 194 -333 209 -333 12 0 13 57 1 64 -4 3 -11 33 -15 66 -7 58 -27 142
-59 244 -18 56 -9 51 26 -14 41 -75 102 -184 117 -206 11 -18 11 -40 2 -125
-27 -231 -31 -270 -37 -406 -7 -157 -7 -158 51 -128 16 8 41 15 56 15 15 0 30
5 33 10 3 6 19 10 34 10 l29 0 7 248 c4 136 11 306 17 377 5 72 12 159 14 195
6 85 10 96 28 81 22 -19 26 0 13 78 -8 55 -8 104 1 199 7 70 17 186 23 257 6
72 14 144 19 160 l8 30 1 -34 c1 -19 9 -43 19 -54 13 -15 17 -36 16 -98 0 -45
3 -78 8 -77 13 5 41 76 73 183 51 173 50 171 53 83 2 -43 -2 -106 -7 -140 -5
-35 -20 -126 -32 -203 -21 -132 -21 -215 0 -215 17 0 117 284 126 358 4 29 10
65 15 80 7 24 8 22 15 -22 9 -55 2 -140 -25 -327 -22 -147 -19 -249 7 -228 20
17 21 10 13 -51 -9 -64 -3 -110 14 -110 14 0 56 78 56 103 0 9 5 19 10 22 6 4
10 -16 10 -52 0 -34 6 -67 14 -78 13 -18 14 -18 21 6 4 13 20 52 36 86 16 34
29 64 29 67 0 2 14 35 32 73 19 40 33 61 36 51 3 -17 -16 -122 -44 -238 -30
-127 -30 -210 -1 -210 13 0 31 35 91 173 22 52 35 73 39 62 8 -19 -15 -119
-43 -195 -17 -43 -23 -92 -30 -220 -5 -91 -12 -173 -15 -182 -5 -13 -2 -18 9
-18 26 0 72 83 106 193 17 56 34 108 36 116 3 8 7 11 10 8 3 -3 -3 -77 -15
-164 -13 -99 -18 -171 -13 -193 l8 -34 22 31 c13 18 34 58 48 90 14 32 30 67
35 78 5 11 25 74 44 140 36 121 73 205 89 205 19 0 -2 -176 -34 -285 -17 -60
-35 -114 -39 -120 -4 -5 -25 -57 -46 -115 -21 -58 -42 -110 -46 -115 -26 -35
-34 -225 -8 -210 15 10 58 100 120 255 l59 145 -6 -65 c-3 -36 -10 -89 -15
-117 -8 -39 -7 -62 2 -88 14 -37 35 -46 42 -17 39 145 52 145 26 0 -22 -119
-24 -174 -7 -184 17 -10 35 20 59 100 11 39 27 90 35 114 8 23 14 50 14 59 0
12 3 14 11 6 6 -6 13 -59 16 -117 3 -58 9 -106 13 -106 3 0 15 17 25 38 l20
37 2 -40 c2 -22 7 -69 12 -105 6 -36 13 -86 16 -112 7 -56 18 -60 41 -17 48
94 67 296 41 449 -8 47 -14 86 -12 88 5 6 45 -88 75 -181 42 -126 60 -128 60
-6 0 82 -32 197 -85 305 -48 96 -50 104 -36 104 6 0 37 -46 69 -102 33 -57 72
-116 86 -133 24 -28 25 -28 26 -8 0 12 -9 43 -20 69 -24 56 -17 70 15 32 13
-16 29 -28 35 -28 20 0 9 39 -35 128 -38 75 -63 109 -151 199 -158 162 -214
223 -214 234 0 23 162 -103 266 -208 63 -63 114 -107 114 -99 0 26 -45 119
-81 165 -19 25 -71 82 -116 128 -44 46 -77 83 -73 83 5 0 11 -4 14 -9 3 -5 18
-12 33 -16 15 -3 56 -26 92 -50 84 -56 141 -81 141 -61 0 7 -7 19 -15 26 -8 7
-15 16 -15 21 0 5 7 9 15 9 25 0 18 13 -37 72 -49 51 -82 78 -258 208 -121 89
-13 48 202 -76 61 -35 112 -64 114 -64 16 0 -2 35 -33 65 -41 40 -191 141
-231 156 -14 5 -22 12 -18 16 3 3 16 2 29 -4 12 -6 60 -25 107 -43 47 -17 102
-43 123 -57 43 -27 54 -25 38 6 -15 27 -141 135 -189 161 -20 11 -53 30 -72
42 -19 11 -93 50 -165 85 -71 36 -145 72 -163 81 -37 19 -50 32 -30 32 32 -1
140 -45 261 -106 72 -36 160 -77 196 -90 118 -43 120 -31 11 55 -78 62 -98 91
-62 91 9 0 27 -18 40 -40 24 -43 59 -57 47 -19 -5 13 -2 25 6 30 11 6 10 11
-3 26 -8 10 -27 61 -42 113 -15 52 -32 109 -37 126 -12 40 -12 67 1 59 14 -9
36 -62 71 -175 39 -122 79 -232 92 -247 13 -17 27 -7 27 20 1 13 11 -2 26 -38
35 -85 71 -149 84 -153 9 -3 11 21 5 97 -5 72 -4 101 4 101 6 0 11 -5 11 -11
0 -6 6 -25 14 -42 7 -18 30 -71 51 -119 20 -48 44 -93 51 -99 16 -13 16 -7 14
161 -1 116 7 112 69 -37 58 -139 75 -140 69 -3 -3 55 -2 100 1 100 3 0 25 -60
49 -133 44 -136 107 -277 123 -277 18 0 39 75 40 144 l1 71 27 -80 c36 -104
41 -115 52 -115 10 0 4 277 -7 328 -3 17 -2 32 3 32 5 0 19 -39 32 -87 13 -49
29 -108 37 -133 7 -25 20 -81 30 -125 20 -96 65 -211 79 -205 6 3 9 39 6 88
-2 46 0 118 4 160 6 70 8 75 22 57 26 -37 151 -290 162 -330 21 -77 68 -180
82 -180 25 0 24 116 -1 183 -12 31 -25 61 -29 67 -4 5 -13 28 -20 50 -8 22
-25 65 -38 95 -14 30 -30 69 -38 85 -17 38 -36 108 -31 113 3 2 11 -7 19 -20
35 -54 94 -156 109 -188 20 -40 107 -228 129 -277 7 -18 18 -33 23 -33 13 0 3
44 -66 277 -35 120 -25 113 88 -62 64 -98 194 -347 194 -371 0 -7 5 -16 12
-20 13 -8 5 54 -17 125 -58 192 -78 246 -101 281 -15 22 -24 43 -20 47 7 8 62
-53 108 -119 33 -48 48 -59 48 -35 0 27 -102 209 -174 309 -74 104 -91 133
-61 108 8 -6 19 -10 25 -8 16 5 -92 158 -172 244 -65 69 -178 164 -292 245
-26 18 -78 56 -115 82 -135 98 -199 135 -316 182 -66 26 -165 70 -220 97 -119
59 -321 142 -402 164 -177 50 -251 65 -368 79 -71 8 -148 15 -171 15 -38 0
-43 4 -85 63 -60 82 -82 118 -76 123 2 3 28 -14 58 -36 29 -22 63 -40 74 -40
24 -1 67 -23 129 -68 80 -57 79 -22 -3 115 -22 37 -39 69 -37 71 11 10 88 -55
120 -102 76 -110 113 -122 102 -32 l-6 51 22 -26 c13 -15 36 -43 51 -63 15
-20 34 -36 42 -36 19 0 19 29 2 55 -7 11 -19 40 -26 64 -7 25 -29 78 -48 119
-19 41 -32 76 -30 78 4 4 69 -80 148 -195 21 -29 34 -40 41 -33 10 10 6 88 -7
147 -6 29 -6 29 10 10 9 -11 42 -73 73 -137 57 -119 83 -144 90 -88 2 14 8 35
14 47 8 17 8 32 -1 61 -7 21 -11 49 -9 62 2 16 20 -18 58 -110 53 -131 81
-177 100 -165 12 8 13 137 1 188 -7 27 -6 37 4 37 7 0 22 -34 35 -77 28 -97
79 -203 97 -203 10 0 13 19 13 75 0 41 3 75 8 75 10 0 40 -59 48 -95 11 -56
37 -120 56 -140 16 -17 20 -18 28 -5 12 19 12 152 0 210 -18 80 -28 153 -34
235 l-6 80 19 -23 c11 -12 30 -66 42 -120 12 -53 33 -121 46 -151 12 -29 23
-58 23 -64 0 -25 111 -238 123 -235 19 7 20 69 3 175 -9 53 -13 99 -11 101 8
8 107 -211 132 -290 3 -10 12 -18 20 -18 12 0 13 12 8 68 -4 37 -11 74 -15 82
-4 8 -11 42 -15 75 -3 33 -8 71 -11 85 -4 16 -2 21 4 15 5 -5 19 -48 32 -95
12 -47 32 -112 45 -145 13 -33 31 -84 41 -113 19 -60 70 -135 87 -129 14 5 14
189 -1 221 -8 18 -34 128 -48 206 -5 24 -5 24 9 5 13 -18 72 -150 134 -299 57
-136 77 -134 71 10 -2 53 -2 91 0 85 2 -7 35 -61 73 -120 65 -99 110 -182 123
-224 3 -10 10 -15 16 -12 19 12 10 94 -20 177 -17 46 -41 113 -54 149 -13 37
-29 76 -35 88 -24 44 7 17 97 -84 51 -58 100 -105 108 -105 18 0 19 -3 -14 72
-53 120 -90 183 -146 245 -85 93 -76 97 43 18 46 -30 87 -55 92 -55 20 0 7 31
-36 87 -62 82 -125 140 -235 218 -114 82 -105 74 -97 81 15 15 172 -54 289
-128 26 -16 53 -28 59 -26 6 2 -24 41 -67 87 -74 79 -210 180 -264 196 -14 4
-50 21 -80 37 l-55 30 55 -6 c30 -4 78 -12 107 -18 28 -6 60 -8 70 -4 16 7 16
9 -7 26 -14 11 -31 20 -38 20 -8 0 -26 7 -40 15 -33 17 -165 58 -247 75 -33 7
-64 17 -70 22 -5 4 -17 8 -27 8 -10 0 -18 4 -18 10 0 5 13 7 30 4 23 -5 30 -3
30 9 0 15 -91 58 -165 76 -24 6 -60 29 -89 54 -26 24 -70 57 -97 73 -39 23
-48 33 -44 50 5 22 -45 66 -126 110 -21 12 -53 30 -72 41 -19 11 -77 40 -131
63 -103 45 -133 68 -75 57 118 -23 250 -56 264 -66 5 -5 25 -12 43 -16 18 -4
99 -33 180 -66 134 -54 203 -71 202 -51 -2 28 -103 105 -168 126 -27 9 -66 25
-88 36 -32 17 -34 20 -15 20 14 0 65 -19 115 -42 50 -22 123 -56 162 -73 93
-43 134 -52 134 -30 0 9 -5 25 -10 36 -8 14 -7 19 2 19 20 -1 84 -16 172 -39
90 -24 136 -27 154 -9 22 22 12 33 -50 57 -35 13 -101 39 -148 58 -47 19 -114
45 -150 58 -93 33 -220 94 -220 105 0 6 9 10 20 10 26 0 225 -38 266 -50 40
-13 141 -13 149 0 7 11 -52 40 -82 40 -10 0 -35 8 -56 18 -38 17 -34 17 202
17 241 0 281 6 248 34 -15 12 -207 50 -352 70 -44 6 -152 11 -240 12 l-160 1
49 23 c45 22 65 39 66 58 1 33 -399 -44 -556 -108 -49 -20 -96 -38 -104 -41
-8 -3 11 19 43 49 38 36 83 65 132 87 41 18 75 37 75 41 0 17 -69 9 -135 -15
-70 -25 -157 -75 -240 -136 -71 -52 -94 -59 -60 -17 15 17 40 51 57 73 17 23
41 48 54 55 14 7 23 17 21 23 -7 21 -39 17 -95 -10 -97 -47 -172 -110 -244
-204 -72 -94 -88 -110 -88 -88 0 17 101 168 135 202 32 32 32 46 0 46 -30 0
-76 -39 -135 -115 -25 -32 -61 -77 -80 -100 -33 -41 -98 -122 -139 -175 l-19
-25 5 27 c5 27 5 27 -31 17 -21 -6 -49 -9 -64 -7 -25 3 -24 5 18 24 25 12 61
27 80 34 34 13 110 76 110 92 0 13 -65 9 -103 -7 -20 -8 -38 -15 -41 -15 -2 0
18 22 46 48 61 58 58 77 -9 68 l-43 -6 47 60 c110 137 110 135 43 132 -55 -4
-45 17 34 68 33 22 71 47 83 55 27 19 107 134 99 142 -3 4 -34 -9 -68 -27
-117 -63 -139 -73 -145 -66 -9 9 101 110 163 150 28 19 67 48 87 66 30 26 35
35 26 46 -15 18 -39 11 -96 -29 -115 -82 -174 -103 -105 -39 22 20 52 45 66
55 14 10 38 41 52 70 15 29 42 74 61 100 19 27 32 52 28 55 -9 9 -93 -39 -133
-75 -19 -18 -37 -33 -39 -33 -10 0 12 47 42 89 18 25 45 69 60 96 15 28 43 66
61 85 42 44 43 60 5 60 -21 0 -40 -12 -70 -42z m-1348 -523 c2 -16 6 -37 10
-45 11 -29 16 -90 7 -90 -14 0 -17 11 -25 95 -7 76 -1 104 8 40z m990 -632
c-7 -2 -19 -2 -25 0 -7 3 -2 5 12 5 14 0 19 -2 13 -5z m-476 -125 c-3 -8 -6
-5 -6 6 -1 11 2 17 5 13 3 -3 4 -12 1 -19z m-643 -82 c36 -12 38 -14 19 -24
-15 -8 -25 -7 -41 4 -12 8 -22 19 -22 25 0 11 -3 11 44 -5z m2626 -362 c0 -2
-7 -4 -15 -4 -8 0 -15 4 -15 10 0 5 7 7 15 4 8 -4 15 -8 15 -10z m-4353 -950
c-3 -3 -12 -4 -19 -1 -8 3 -5 6 6 6 11 1 17 -2 13 -5z m2285 -118 c-9 -18 -11
-16 -11 19 0 33 1 37 10 21 8 -12 8 -25 1 -40z m-10 -56 c-2 -16 -6 -30 -8
-30 -2 0 -4 14 -4 30 0 17 4 30 8 30 5 0 7 -13 4 -30z m-1515 -2 c-3 -8 -6 -5
-6 6 -1 11 2 17 5 13 3 -3 4 -12 1 -19z m1113 -72 c0 -12 -27 -52 -62 -91 -62
-71 -78 -85 -78 -66 0 15 29 123 34 129 9 9 26 -10 26 -29 0 -54 47 23 49 80
1 20 3 21 16 11 8 -7 15 -22 15 -34z m-1985 -45 c-3 -12 -10 -21 -15 -21 -5 0
-4 11 2 25 13 29 23 26 13 -4z m-34 -72 c-5 -13 -10 -19 -10 -12 -1 15 10 45
15 40 3 -2 0 -15 -5 -28z m2696 -551 c-3 -7 -5 -2 -5 12 0 14 2 19 5 13 2 -7
2 -19 0 -25z m-1819 -188 c0 -65 0 -65 -9 -20 -12 61 -13 71 -10 100 5 51 20
-12 19 -80z m89 -97 c-3 -10 -5 -4 -5 12 0 17 2 24 5 18 2 -7 2 -21 0 -30z
m-75 -25 c-10 -22 -11 -21 -11 12 -1 26 2 31 11 22 8 -8 8 -17 0 -34z m902
-23 c3 -8 1 -15 -4 -15 -6 0 -10 7 -10 15 0 8 2 15 4 15 2 0 6 -7 10 -15z"/>
<path d="M5560 6645 c-26 -69 -19 -84 19 -46 21 21 115 36 161 26 l30 -7 0
-212 c0 -190 -2 -215 -17 -228 -10 -9 -27 -18 -37 -19 -11 -2 -21 -9 -23 -16
-3 -9 24 -11 108 -10 80 1 114 6 117 15 2 7 -6 12 -21 12 -13 0 -30 6 -36 14
-15 18 -26 378 -13 421 8 29 11 30 68 30 80 -1 110 -10 117 -37 9 -31 24 -13
32 37 l7 40 -252 0 c-243 0 -253 -1 -260 -20z"/>
<path d="M6110 6664 c0 -3 11 -15 25 -26 l25 -20 -6 -211 c-4 -117 -11 -220
-16 -229 -5 -10 -18 -18 -29 -18 -12 0 -19 -5 -17 -12 3 -9 34 -14 96 -15 74
-2 92 1 92 13 0 8 -6 14 -13 14 -8 0 -22 8 -31 19 -14 15 -16 35 -14 112 l3
94 175 0 175 0 3 -96 c3 -93 2 -98 -23 -117 -41 -33 -31 -40 57 -37 79 3 112
16 69 28 -34 8 -40 48 -40 224 0 171 11 251 35 260 36 13 6 23 -71 23 -50 0
-85 -4 -85 -10 0 -5 6 -10 13 -10 34 0 47 -35 47 -128 l0 -92 -180 0 -180 0 0
73 c0 81 18 132 50 140 11 3 20 10 20 16 0 7 -32 11 -90 11 -49 0 -90 -3 -90
-6z"/>
<path d="M6750 6662 c0 -4 9 -15 20 -25 19 -16 20 -29 20 -216 0 -208 -6 -249
-41 -258 -11 -3 -18 -11 -16 -17 3 -8 64 -11 203 -10 l199 1 13 26 c30 63 19
140 -12 80 -28 -56 -50 -67 -145 -71 -130 -6 -132 -4 -129 116 l3 97 82 3 c94
3 123 -7 123 -43 0 -16 6 -25 15 -25 12 0 15 15 15 74 0 82 -9 99 -34 61 -16
-25 -20 -26 -109 -23 l-92 3 -3 88 c-2 57 1 94 9 103 8 10 36 14 103 14 99 -1
122 -10 128 -50 5 -40 23 -29 29 20 4 25 5 48 2 53 -6 9 -383 9 -383 -1z"/>
<path d="M4275 5895 c-81 -14 -191 -67 -253 -120 -94 -81 -152 -210 -152 -338
0 -75 15 -153 41 -212 42 -96 163 -205 257 -233 23 -6 61 -18 85 -24 53 -16
231 -16 322 1 39 7 96 17 128 23 63 12 79 28 53 57 -13 14 -16 43 -16 164 l0
146 30 23 c54 39 41 52 -47 44 -42 -3 -118 -6 -170 -6 -85 0 -94 -2 -91 -17 2
-14 17 -19 65 -24 34 -3 69 -11 76 -18 22 -17 34 -160 22 -243 -9 -56 -16 -63
-87 -89 -57 -21 -204 -27 -236 -10 -9 5 -39 19 -65 32 -141 64 -239 223 -241
394 -2 171 73 305 213 377 72 37 78 38 175 38 80 0 110 -5 146 -21 52 -23 102
-68 136 -122 36 -56 46 -39 38 66 -7 103 -19 126 -53 107 -17 -9 -37 -8 -91 4
-81 19 -187 19 -285 1z"/>
<path d="M4980 5895 c-142 -10 -175 -21 -111 -38 61 -15 61 -15 61 -413 0
-239 -4 -372 -11 -393 -8 -21 -23 -38 -48 -49 -19 -9 -37 -24 -39 -32 -2 -13
21 -15 158 -15 117 0 160 3 160 12 0 14 -15 25 -55 38 -42 14 -53 66 -54 254
l-1 154 46 -7 c26 -3 61 -6 78 -6 27 -1 37 -10 86 -82 192 -281 333 -397 483
-398 41 0 48 3 45 17 -2 10 -19 22 -38 28 -95 28 -195 129 -343 349 -75 111
-73 101 -19 132 139 80 180 218 101 338 -53 80 -182 132 -307 124 -26 -2 -112
-7 -192 -13z m261 -35 c87 -24 159 -125 159 -222 0 -123 -86 -181 -256 -176
l-89 3 -3 174 c-3 220 -1 226 113 230 22 0 56 -4 76 -9z"/>
<path d="M6235 5858 c-10 -29 -23 -66 -30 -83 -16 -37 -192 -456 -229 -545
-51 -125 -100 -204 -134 -219 -28 -13 -45 -41 -24 -41 4 0 66 -1 137 -3 106
-2 130 1 130 12 0 8 -20 20 -47 28 -58 17 -71 36 -53 83 7 19 22 62 34 95 40
115 21 105 212 105 l168 0 16 -57 c9 -32 25 -76 35 -98 38 -86 34 -104 -26
-142 -16 -10 -17 -13 -4 -23 8 -5 24 -8 35 -5 11 2 71 5 133 5 103 0 113 2
110 18 -2 9 -13 18 -25 20 -31 5 -75 61 -102 130 -35 88 -46 118 -96 247 -25
66 -52 136 -60 155 -8 19 -37 100 -65 180 -29 80 -56 155 -61 168 -15 37 -36
26 -54 -30z m59 -310 c26 -68 54 -137 61 -155 8 -18 10 -35 5 -38 -16 -10
-242 -7 -252 3 -9 9 13 99 31 127 7 10 34 79 67 169 22 61 24 58 88 -106z"/>
<path d="M7526 5903 c-16 -17 -2 -31 35 -36 89 -12 100 -58 94 -406 -3 -145
-6 -265 -8 -267 -2 -2 -26 18 -53 44 -27 27 -168 161 -314 299 -146 137 -283
272 -305 299 -21 27 -44 52 -50 56 -5 4 -52 8 -102 8 -106 0 -120 -13 -51 -45
26 -12 51 -34 63 -55 19 -33 20 -50 17 -325 -3 -431 -6 -448 -73 -470 -19 -7
-34 -18 -34 -26 0 -11 30 -14 165 -14 139 0 165 2 165 15 0 8 -13 19 -30 24
-66 20 -102 39 -116 60 -11 17 -14 79 -14 324 0 167 3 308 6 313 7 12 366
-317 567 -521 88 -89 182 -202 182 -219 0 -7 10 -11 23 -9 21 3 22 8 25 92 2
53 -1 93 -8 100 -12 12 -14 210 -1 234 5 9 11 109 13 222 6 226 9 241 66 265
55 24 38 35 -55 36 -49 1 -113 3 -144 5 -31 2 -59 0 -63 -3z"/>
<path d="M8053 5897 c-125 -7 -173 -13 -173 -22 0 -7 13 -15 28 -18 16 -3 38
-19 48 -34 18 -26 19 -52 21 -358 0 -181 -2 -351 -6 -378 -9 -53 -31 -76 -72
-77 -30 0 -47 -27 -24 -37 29 -10 568 4 610 17 159 48 279 151 331 281 66 169
29 355 -96 480 -103 104 -257 160 -425 157 -38 -1 -148 -6 -242 -11z m317 -37
c87 -16 175 -66 236 -133 77 -86 98 -145 98 -277 0 -125 -20 -202 -71 -273
-64 -87 -108 -114 -259 -158 -39 -12 -141 -12 -148 0 -3 4 -27 11 -53 15 -84
11 -78 -21 -78 405 0 325 2 382 15 395 30 30 167 44 260 26z"/>
<path d="M4045 4718 c-59 -179 -118 -328 -185 -473 -16 -33 -37 -85 -48 -115
-12 -30 -32 -77 -45 -105 -13 -27 -28 -61 -32 -75 -7 -24 -34 -89 -92 -225
-46 -108 -116 -249 -141 -288 -15 -23 -45 -48 -73 -63 -101 -50 -78 -59 159
-60 182 0 202 1 202 16 0 11 -14 21 -42 29 -63 19 -102 39 -116 62 -14 22 -12
31 53 199 20 52 43 110 49 128 7 18 17 37 23 43 14 14 302 24 415 15 l87 -8
17 -46 c10 -26 21 -51 24 -57 4 -5 17 -41 30 -80 12 -38 28 -84 36 -102 8 -17
14 -52 14 -77 0 -41 -3 -48 -27 -57 -60 -24 -73 -33 -73 -48 0 -15 24 -17 220
-16 l221 0 -3 24 c-2 19 -12 26 -51 36 -26 7 -54 21 -62 31 -20 25 -74 139
-113 234 -27 67 -47 119 -135 350 -14 36 -57 153 -97 260 -40 107 -78 209 -85
225 -7 17 -16 41 -20 55 -3 14 -10 34 -15 45 -5 11 -18 49 -28 85 -15 51 -24
66 -41 68 -12 2 -23 -3 -26 -10z m-6 -354 c20 -42 101 -247 147 -369 10 -27
24 -61 31 -75 10 -21 10 -26 -3 -33 -19 -11 -384 -5 -402 6 -8 6 -10 13 -4 20
5 7 19 44 32 82 12 39 32 93 44 120 12 28 33 79 45 115 30 84 73 180 82 180 4
0 17 -21 28 -46z"/>
<path d="M6650 4673 c-13 -32 -34 -92 -49 -133 -15 -41 -29 -79 -33 -85 -3 -5
-22 -50 -42 -100 -20 -49 -41 -98 -46 -107 -5 -10 -30 -66 -54 -125 -85 -211
-117 -288 -126 -308 -5 -11 -23 -53 -40 -93 -40 -94 -112 -242 -139 -285 -11
-18 -43 -46 -71 -61 -29 -16 -50 -34 -50 -44 0 -15 20 -17 210 -18 192 0 210
1 210 17 0 12 -14 20 -52 29 -66 16 -104 34 -112 55 -9 24 -7 73 3 93 5 9 16
35 24 57 9 22 33 83 54 136 l38 97 65 6 c85 8 301 8 378 0 l60 -7 30 -76 c17
-42 34 -89 38 -106 4 -16 10 -34 14 -40 4 -5 17 -41 30 -79 28 -84 20 -110
-38 -126 -41 -11 -70 -35 -58 -48 4 -4 104 -7 222 -7 l214 0 0 28 c0 22 -4 27
-25 27 -46 0 -80 26 -112 87 -30 59 -103 230 -144 338 -13 33 -26 65 -30 70
-3 6 -16 42 -29 80 -20 63 -34 102 -60 160 -14 31 -95 254 -157 430 -30 88
-59 168 -64 178 -17 31 -37 18 -59 -40z m-5 -283 c8 -16 31 -68 49 -114 19
-47 41 -100 49 -118 8 -18 22 -55 32 -83 10 -27 26 -68 36 -90 10 -23 19 -54
21 -70 l3 -30 -202 0 c-111 0 -204 3 -207 6 -6 6 8 46 96 274 42 110 102 255
105 255 1 0 9 -13 18 -30z"/>
<path d="M7856 4719 c-12 -8 -93 -12 -237 -12 -201 -1 -219 -3 -219 -19 0 -12
13 -21 43 -29 82 -21 105 -63 113 -206 2 -53 6 -99 8 -102 7 -12 -22 -906 -30
-926 -11 -26 -45 -54 -66 -55 -31 0 -68 -23 -68 -42 0 -17 15 -18 298 -17 307
0 343 3 476 39 173 46 250 146 251 324 0 91 -4 108 -53 204 -35 68 -187 171
-278 188 -19 3 -34 10 -34 15 0 5 22 20 50 34 72 36 116 79 147 143 24 49 28
69 27 137 -1 99 -28 158 -103 228 -59 55 -93 72 -182 88 -106 19 -123 20 -143
8z m60 -70 c60 -16 146 -93 166 -151 30 -85 34 -120 21 -190 -15 -84 -23 -98
-75 -141 -58 -45 -116 -64 -222 -73 l-88 -7 4 273 c3 254 5 273 23 286 23 17
109 18 171 3z m59 -627 c99 -35 164 -80 206 -145 47 -73 61 -121 62 -207 0
-157 -80 -251 -244 -286 -93 -20 -233 -14 -258 10 -14 15 -16 56 -19 331 l-3
315 103 0 c71 -1 118 -6 153 -18z"/>
<path d="M9137 4723 c-2 -5 -15 -39 -27 -78 -12 -38 -26 -74 -30 -80 -3 -5
-21 -50 -40 -100 -18 -49 -41 -106 -50 -125 -23 -46 -50 -106 -50 -114 0 -3
-11 -29 -24 -58 -32 -68 -146 -345 -146 -352 0 -3 -15 -39 -33 -78 -19 -40
-49 -107 -68 -148 -66 -146 -97 -189 -156 -217 -34 -16 -53 -31 -51 -40 3 -13
38 -15 216 -17 190 -2 212 -1 212 13 0 11 -16 21 -47 30 -71 19 -101 32 -114
47 -20 24 -12 80 24 166 19 45 47 115 61 154 l27 71 76 7 c95 8 321 6 388 -2
l49 -7 32 -90 c17 -49 41 -115 52 -145 47 -127 42 -172 -20 -192 -30 -9 -44
-19 -46 -33 -3 -19 3 -20 218 -20 l221 0 -3 25 c-2 19 -11 26 -37 31 -63 13
-82 31 -126 119 -23 47 -48 103 -55 125 -7 22 -25 67 -40 100 -15 33 -33 78
-40 100 -12 37 -49 132 -70 180 -5 11 -18 52 -31 90 -12 39 -25 75 -29 80 -4
6 -24 57 -44 115 -20 58 -41 114 -46 125 -27 60 -50 115 -50 122 0 4 -14 52
-31 106 -25 74 -36 97 -50 97 -10 0 -20 -3 -22 -7z m-6 -370 c17 -38 34 -77
39 -88 5 -11 19 -47 31 -80 11 -33 30 -80 41 -105 38 -83 68 -184 59 -193 -10
-10 -395 -6 -406 4 -6 6 20 77 120 329 19 47 43 111 55 143 12 31 24 57 26 57
3 0 18 -30 35 -67z"/>
<path d="M10339 4720 c-9 -5 -117 -12 -240 -16 -123 -4 -230 -11 -237 -17 -18
-14 4 -37 38 -37 38 0 77 -34 90 -78 17 -58 22 -406 12 -777 -10 -402 -10
-400 -96 -436 -46 -18 -56 -27 -54 -44 3 -17 9 -20 48 -17 66 3 317 4 375 0
45 -3 50 -1 53 18 2 16 -4 23 -25 28 -56 14 -101 40 -113 64 -16 36 -32 282
-28 435 l3 132 110 -3 c125 -4 113 3 193 -114 220 -320 329 -439 497 -541 68
-41 163 -67 248 -67 54 0 58 1 55 22 -2 17 -14 25 -48 33 -114 29 -186 89
-356 291 -69 84 -264 371 -264 390 0 5 31 26 68 46 76 41 147 111 184 179 20
38 23 58 23 144 0 98 -1 101 -36 155 -71 108 -162 171 -276 190 -32 6 -77 15
-101 20 -53 12 -102 12 -123 0z m188 -91 c57 -33 113 -92 146 -154 29 -56 36
-208 13 -270 -39 -102 -173 -165 -352 -165 -54 0 -113 6 -132 13 l-35 12 7
235 c8 270 13 320 29 337 20 20 107 32 191 27 65 -4 90 -10 133 -35z"/>
<path d="M1472 4693 c3 -18 30 -28 100 -38 59 -8 101 -41 128 -101 17 -37 20
-64 19 -196 0 -84 -5 -205 -10 -268 -5 -63 -13 -190 -19 -282 -11 -184 -31
-322 -55 -368 -16 -31 -59 -57 -132 -80 -29 -9 -43 -19 -43 -31 0 -16 17 -17
248 -16 145 1 250 6 254 12 12 17 -13 34 -70 46 -124 25 -126 30 -118 366 5
253 34 675 47 687 3 3 43 -67 89 -156 46 -90 110 -215 143 -278 153 -293 180
-349 221 -449 24 -58 50 -126 57 -151 31 -112 59 -93 125 85 10 28 35 84 55
125 20 41 40 86 44 100 4 14 11 30 16 36 5 6 30 53 57 105 112 215 198 379
238 451 23 43 46 87 49 98 3 11 12 20 20 20 9 0 15 -29 20 -112 4 -62 9 -126
11 -143 2 -16 7 -147 10 -290 7 -275 1 -342 -37 -417 -15 -29 -30 -41 -74 -57
-31 -12 -62 -21 -69 -21 -17 0 -27 -25 -19 -46 5 -12 14 -15 42 -10 20 3 141
6 269 6 l232 0 0 24 c0 27 -16 36 -63 36 -18 0 -46 8 -63 19 -24 15 -33 29
-43 73 -15 68 -30 362 -38 744 -5 256 -4 297 11 341 22 65 40 80 112 94 65 13
84 23 68 39 -12 12 -295 22 -312 11 -6 -3 -27 -40 -47 -81 -20 -41 -44 -88
-54 -105 -10 -16 -40 -73 -68 -125 -28 -52 -103 -194 -168 -315 -64 -121 -126
-238 -137 -260 -11 -22 -24 -47 -29 -55 -5 -8 -20 -36 -34 -62 -14 -27 -29
-48 -33 -48 -4 0 -27 37 -51 83 -57 110 -103 196 -190 356 -117 216 -227 435
-262 525 l-32 83 -156 6 c-244 11 -263 10 -259 -10z"/>
<path d="M4835 4689 c-10 -15 1 -23 53 -34 37 -8 50 -17 66 -45 21 -34 21 -46
19 -555 -3 -524 -8 -611 -40 -647 -9 -9 -37 -24 -63 -33 -48 -16 -64 -32 -51
-53 5 -8 156 -11 519 -13 489 -1 514 0 527 17 8 11 15 26 15 34 0 8 6 27 14
42 17 33 49 185 41 198 -12 20 -35 9 -49 -23 -20 -50 -73 -105 -120 -126 -107
-49 -151 -55 -373 -56 -243 0 -236 -2 -253 84 -19 101 -3 1077 18 1117 14 26
70 54 109 54 30 0 69 31 56 43 -11 12 -481 8 -488 -4z"/>
<path d="M4090 2440 l0 -151 28 3 27 3 0 145 0 145 -27 3 -28 3 0 -151z"/>
<path d="M4310 2439 l0 -150 28 3 c27 3 27 3 30 92 l3 89 37 -50 c77 -103 108
-133 135 -133 l27 0 0 150 0 150 -30 0 -30 0 0 -79 c0 -44 -4 -82 -9 -86 -6
-3 -18 6 -28 20 -55 78 -120 145 -140 145 -23 0 -23 -1 -23 -151z"/>
<path d="M4730 2558 c-1 -18 -2 -85 -2 -148 l-2 -115 87 -3 c95 -3 150 15 181
60 21 30 22 145 1 175 -33 47 -76 63 -174 63 l-91 0 0 -32z m189 -57 c69 -65
8 -161 -95 -149 -29 3 -29 4 -32 77 -2 41 -1 80 2 88 3 8 22 13 50 13 35 0 50
-6 75 -29z"/>
<path d="M5150 2440 l0 -151 33 3 32 3 0 145 0 145 -32 3 -33 3 0 -151z"/>
<path d="M5436 2544 c-14 -26 -26 -48 -26 -51 0 -5 -32 -75 -65 -145 -13 -26
-20 -49 -17 -52 3 -4 18 -6 33 -6 22 0 32 7 45 35 16 34 18 35 74 35 61 0 83
-12 95 -50 5 -15 15 -20 41 -20 19 0 34 3 34 7 0 6 -18 45 -92 206 -37 78 -44
87 -69 87 -22 0 -32 -9 -53 -46z m69 -84 c21 -41 19 -47 -20 -48 -19 -1 -35 1
-35 4 0 9 32 74 36 74 2 0 10 -13 19 -30z"/>
<path d="M5760 2440 l0 -150 35 0 35 0 0 80 c0 44 3 80 8 80 4 0 23 -21 42
-46 62 -82 96 -114 124 -114 l26 0 0 150 0 150 -29 0 c-29 0 -30 -1 -36 -67
-3 -38 -7 -76 -8 -87 -1 -13 -22 7 -71 68 -58 71 -74 86 -98 86 l-28 0 0 -150z"/>
<path d="M6412 2556 c-84 -76 -75 -187 20 -249 58 -36 198 -13 198 34 0 25
-27 36 -51 21 -10 -7 -39 -12 -63 -12 -37 0 -48 4 -64 28 -30 43 -33 61 -17
98 10 24 26 39 50 50 33 13 39 13 80 -5 43 -19 44 -19 62 1 17 19 17 21 -12
44 -25 20 -41 24 -97 24 -63 0 -71 -2 -106 -34z"/>
<path d="M6760 2485 c0 -153 28 -195 131 -195 102 0 139 57 139 214 l0 87 -37
-3 -38 -3 -3 -104 c-1 -58 -8 -111 -14 -118 -16 -20 -75 -16 -98 7 -17 17 -20
33 -20 120 l0 100 -30 0 -30 0 0 -105z"/>
<path d="M7175 2556 c-4 -18 -5 -85 -3 -147 l3 -114 33 -3 32 -3 0 150 0 151
-30 0 c-25 0 -30 -4 -35 -34z"/>
<path d="M7399 2561 c-31 -32 -38 -75 -16 -103 14 -18 66 -43 117 -56 45 -11
52 -38 14 -52 -21 -8 -40 -7 -76 5 -55 18 -68 14 -68 -19 0 -31 37 -46 113
-46 73 0 113 25 123 77 5 27 1 37 -23 61 -17 18 -45 32 -69 36 -21 4 -50 15
-63 25 l-24 18 27 19 c25 15 34 16 73 6 50 -14 63 -10 63 18 0 28 -30 40 -100
40 -55 0 -65 -3 -91 -29z"/>
<path d="M7734 2577 c-2 -7 -3 -74 -2 -148 l3 -134 30 0 30 0 3 125 c3 152 0
170 -34 170 -13 0 -27 -6 -30 -13z"/>
<path d="M7950 2440 l0 -150 30 0 30 0 0 85 c0 47 3 85 8 85 4 0 39 -39 77
-85 50 -60 77 -85 93 -85 22 0 22 1 22 150 l0 150 -24 0 c-30 0 -37 -19 -35
-94 2 -67 -6 -80 -32 -46 -93 119 -113 140 -141 140 l-28 0 0 -150z"/>
<path d="M8370 2440 l0 -151 113 3 112 3 0 25 c0 24 -2 25 -82 28 l-83 3 0 29
0 29 73 3 c70 3 72 4 75 30 3 27 3 27 -70 30 -71 3 -73 4 -76 31 l-3 27 80 0
c83 0 97 6 86 40 -6 18 -15 20 -116 20 l-109 0 0 -150z"/>
</g>
</svg>
