<?xml version="1.0" standalone="no"?>
<!DOCTYPE svg PUBLIC "-//W3C//DTD SVG 20010904//EN"
 "http://www.w3.org/TR/2001/REC-SVG-20010904/DTD/svg10.dtd">
<svg version="1.0" xmlns="http://www.w3.org/2000/svg"
 width="1280.000000pt" height="1280.000000pt" viewBox="0 0 1280.000000 1280.000000"
 preserveAspectRatio="xMidYMid meet">
<metadata>
Created by potrace 1.14, written by Peter Selinger 2001-2017
</metadata>
<g transform="translate(0.000000,1280.000000) scale(0.100000,-0.100000)"
fill="#000000" stroke="none">
<path d="M6519 11636 c-2 -2 -58 -7 -124 -10 -66 -4 -127 -9 -135 -11 -8 -2
-43 -7 -77 -10 -35 -4 -73 -8 -85 -10 -68 -8 -134 -17 -152 -21 -12 -2 -43 -8
-71 -13 -27 -6 -66 -12 -85 -15 -46 -7 -270 -59 -390 -91 -214 -58 -518 -165
-735 -260 -103 -45 -390 -189 -393 -197 -2 -4 -8 -8 -12 -8 -17 0 -301 -168
-337 -200 -7 -5 -14 -10 -17 -10 -5 0 -155 -103 -202 -139 -12 -9 -32 -23 -44
-31 -12 -8 -59 -44 -104 -80 -45 -36 -99 -78 -120 -95 -21 -16 -56 -46 -77
-65 -21 -19 -66 -60 -100 -90 -122 -108 -308 -299 -445 -455 -58 -66 -223
-275 -269 -341 -27 -38 -52 -71 -55 -74 -27 -24 -280 -437 -316 -515 -11 -22
-22 -42 -25 -45 -4 -3 -36 -66 -71 -140 -101 -210 -128 -270 -128 -283 0 -7
-4 -17 -9 -23 -33 -34 -216 -591 -255 -774 -3 -14 -10 -43 -15 -65 -5 -22 -12
-51 -15 -65 -2 -14 -11 -59 -19 -100 -16 -80 -36 -192 -43 -250 -2 -19 -7 -46
-9 -60 -3 -14 -7 -56 -11 -95 -3 -38 -8 -81 -10 -95 -19 -113 -26 -653 -12
-855 11 -155 32 -350 45 -410 2 -11 6 -40 9 -65 5 -38 64 -334 79 -395 3 -11
7 -29 10 -40 2 -11 9 -38 15 -60 6 -22 12 -48 15 -58 31 -134 201 -617 225
-641 6 -6 10 -16 10 -24 0 -8 7 -30 17 -50 28 -63 172 -356 182 -372 5 -8 40
-69 77 -135 37 -66 96 -164 131 -218 34 -54 63 -102 63 -107 0 -4 4 -10 8 -12
5 -1 30 -34 57 -73 26 -38 51 -72 54 -75 4 -3 15 -18 24 -33 10 -16 25 -36 32
-45 8 -9 44 -55 82 -102 37 -47 72 -90 78 -96 5 -6 28 -33 50 -59 123 -147
402 -426 535 -535 30 -25 59 -50 65 -56 17 -19 156 -128 257 -202 96 -71 365
-252 374 -252 2 0 33 -18 68 -40 35 -22 68 -40 75 -40 6 0 11 -3 11 -7 0 -5
10 -13 23 -19 12 -6 92 -47 177 -90 273 -141 621 -281 880 -355 55 -15 52 -14
70 -22 16 -6 248 -64 288 -72 13 -2 31 -6 40 -9 18 -6 27 -7 172 -32 52 -9
104 -18 115 -20 11 -2 40 -7 65 -10 25 -3 56 -7 70 -9 14 -2 48 -6 75 -10 28
-3 66 -8 85 -10 213 -27 810 -27 1018 0 19 2 68 7 110 11 43 3 79 7 82 9 3 2
30 6 60 10 143 17 450 80 625 129 534 148 993 353 1460 650 60 38 114 73 120
78 5 4 54 39 108 78 54 38 103 74 110 80 6 5 64 51 127 102 63 51 120 97 126
103 6 5 42 37 79 70 117 103 337 327 435 441 14 16 41 47 60 69 72 83 176 216
235 300 22 32 45 63 50 69 35 39 231 353 309 496 47 86 177 349 209 425 77
182 109 265 155 402 45 131 120 389 136 463 3 14 10 43 15 65 6 22 12 54 15
70 3 17 8 41 11 55 12 54 26 127 31 160 3 19 7 46 9 60 18 114 25 163 30 215
4 33 8 76 11 95 25 209 25 873 0 1005 -2 11 -7 55 -10 97 -4 42 -9 86 -11 96
-2 10 -6 43 -10 73 -4 30 -8 56 -10 59 -2 3 -6 25 -9 50 -3 25 -8 56 -11 70
-3 14 -8 41 -11 60 -4 19 -17 80 -30 135 -12 55 -25 114 -28 130 -3 17 -11 46
-16 65 -6 19 -20 67 -30 105 -45 164 -161 491 -221 623 -16 34 -29 65 -29 67
0 8 -177 364 -209 421 -60 107 -156 263 -224 364 -65 98 -233 329 -247 340 -3
3 -19 23 -36 45 -16 22 -34 45 -40 50 -5 6 -35 39 -65 75 -132 158 -286 313
-523 528 -25 23 -48 42 -51 42 -2 0 -21 16 -42 35 -21 19 -76 64 -123 100 -47
36 -99 77 -117 91 -91 72 -396 269 -547 353 -214 120 -533 267 -736 341 -182
67 -514 169 -605 186 -11 2 -29 6 -40 8 -87 19 -226 48 -255 52 -19 3 -42 7
-50 9 -18 5 -50 10 -155 25 -125 17 -135 18 -217 25 -43 4 -90 9 -105 11 -35
6 -659 15 -664 10z"/>
</g>
</svg>
